# xmcd
#
# Track frame offsets: 
#        182
#        26527
#        55707
#        75670
#        98262
#        132957
#        165967
#
# Disc length: 2625 seconds
#
# Revision: 4
# Processed by: cddbd v1.5.2PL0 Copyright (c) Steve Scherf et al.
# Submitted via: ExactAudioCopy v1.3
#
DISCID=400a3f07
DTITLE=Dzem - Lunatycy
DYEAR=1988
DGENRE=Rock/Blues
TTITLE0=Wokol Sami Lunatycy
TTITLE1=Paw
TTITLE2=Kim Jestem - Jestem Sobie
TTITLE3=Dzien w Ktorym
TTITLE4=Jesiony
TTITLE5=Skazany Na Bluesa
TTITLE6=Nieudany Skok
EXTD=YEAR: 1999
EXTT0=
EXTT1=
EXTT2=
EXTT3=
EXTT4=
EXTT5=
EXTT6=
PLAYORDER=
